<svg width="259.233" height="205.396" xmlns="http://www.w3.org/2000/svg">
  <defs>
    <clipPath clipPathUnits="userSpaceOnUse" id="prefix__a">
      <path d="M0 2000h749V0H0z" transform="translate(-345.581 -1764.84)" />
    </clipPath>
    <clipPath clipPathUnits="userSpaceOnUse" id="prefix__b">
      <path d="M0 2000h749V0H0z" transform="translate(-453.868 -1652.395)" />
    </clipPath>
    <clipPath clipPathUnits="userSpaceOnUse" id="prefix__c">
      <path d="M0 2000h749V0H0z" transform="translate(-319.632 -1691.103)" />
    </clipPath>
    <clipPath clipPathUnits="userSpaceOnUse" id="prefix__d">
      <path d="M0 2000h749V0H0z" transform="translate(-377.11 -1704.107)" />
    </clipPath>
    <clipPath clipPathUnits="userSpaceOnUse" id="prefix__e">
      <path d="M0 2000h749V0H0z" transform="translate(-405.898 -1646.988)" />
    </clipPath>
    <clipPath clipPathUnits="userSpaceOnUse" id="prefix__f">
      <path d="M0 2000h749V0H0z" transform="translate(-312.327 -1720.15)" />
    </clipPath>
    <clipPath clipPathUnits="userSpaceOnUse" id="prefix__g">
      <path d="M0 2000h749V0H0z" transform="translate(-394.297 -1732.514)" />
    </clipPath>
    <clipPath clipPathUnits="userSpaceOnUse" id="prefix__h">
      <path d="M0 2000h749V0H0z" transform="translate(-328.328 -1706.576)" />
    </clipPath>
    <clipPath clipPathUnits="userSpaceOnUse" id="prefix__i">
      <path d="M0 2000h749V0H0z" transform="translate(-339.722 -1747.15)" />
    </clipPath>
    <clipPath clipPathUnits="userSpaceOnUse" id="prefix__j">
      <path d="M0 2000h749V0H0z" transform="translate(-373.233 -1714.325)" />
    </clipPath>
    <clipPath clipPathUnits="userSpaceOnUse" id="prefix__k">
      <path d="M0 2000h749V0H0z" transform="translate(-388.553 -1707.716)" />
    </clipPath>
    <clipPath clipPathUnits="userSpaceOnUse" id="prefix__l">
      <path d="M0 2000h749V0H0z" transform="translate(-377.11 -1704.107)" />
    </clipPath>
    <clipPath clipPathUnits="userSpaceOnUse" id="prefix__m">
      <path d="M0 2000h749V0H0z" transform="translate(-317.425 -1729.558)" />
    </clipPath>
    <clipPath clipPathUnits="userSpaceOnUse" id="prefix__n">
      <path d="M0 2000h749V0H0z" transform="translate(-320.59 -1725.693)" />
    </clipPath>
    <clipPath clipPathUnits="userSpaceOnUse" id="prefix__o">
      <path d="M0 2000h749V0H0z" transform="translate(-312.327 -1720.15)" />
    </clipPath>
    <clipPath clipPathUnits="userSpaceOnUse" id="prefix__p">
      <path d="M0 2000h749V0H0z" transform="translate(-451.604 -1652.22)" />
    </clipPath>
    <clipPath clipPathUnits="userSpaceOnUse" id="prefix__q">
      <path d="M0 2000h749V0H0z" transform="translate(-345.312 -1702.268)" />
    </clipPath>
    <clipPath clipPathUnits="userSpaceOnUse" id="prefix__r">
      <path d="M0 2000h749V0H0z" transform="translate(-456.143 -1652.56)" />
    </clipPath>
  </defs>
  <path
    d="M0 0c-12.194 7.128-9.012 22.462 0 22.571 10.376.125 20.276-8.952 22.256-11.208 1.98-2.255-1.532 11.208 11.113 12.396C44.318 24.787 52.096 9.785 53.953 2.914c.21-.777 1.243-.932 1.664-.246 2.041 3.33 5.728 7.028 11.805 5.648 9.443-2.145 15.69-13.126 16.008-22.6.036-1.064 1.273-1.623 2.101-.954 4.635 3.738 11.566 7.089 16.317-3.157 2.67-5.759.61-16.222-1.277-25.288-.207-.997.763-1.844 1.717-1.487 3.979 1.487 8.147 2.329 12.231-4.637 6.885-11.742 3.313-47.028-5.866-61.241"
    transform="matrix(1.33333 0 0 -1.33333 98.782 34.774)" clip-path="url(#prefix__a)" fill="#f4679a" />
  <path
    d="M0 0s-6.674 86.412-69.961 107.849c-70.111 23.748-90.755-37.038-90.755-37.038s-24.031-3.506-18.578-30.536c5.675-28.131 62.782-44.098 92.081-34.781l-36.393-1.748-5.73-14.938s6.659 5.584 27.596 6.249c22.74.722 62.394-5.415 80.783-8.726C-8.831-15.853 0-4.361 0 0"
    transform="matrix(1.33333 0 0 -1.33333 243.164 184.7)" clip-path="url(#prefix__b)" fill="#96c1a4" />
  <path
    d="M0 0c1.251-4.741 4.786-9.257 9.111-11.523 8.266-4.331 18.928-1.276 25.984 4.068 1.989 1.506 3.875 3.201 5.377 5.205 1.403 1.872-1.751 3.686-3.139 1.834.07.093.323.394.046.066-.234-.276-.467-.551-.711-.818a27.927 27.927 0 00-2.537-2.436c-2.835-2.41-6.199-4.254-9.773-5.294-7.167-2.086-14.791-.899-18.957 5.751C4.524-1.748 3.908-.563 3.505.966 2.908 3.226-.598 2.267 0 0"
    transform="matrix(1.33333 0 0 -1.33333 64.183 133.089)" clip-path="url(#prefix__c)" />
  <path
    d="M0 0c-.814.503-1.267.93-1.784 1.034-.221.044-.577-.585-.872-.908.453-.327.87-.76 1.375-.933C-1.059-.883-.656-.432 0 0m11.443 3.609c-.009 1.883-1.148 3.128-2.865 3.13-2.173.003-4.409-2.397-4.358-4.68C4.259.296 5.577-1.025 7.246-.973c2.207.068 4.208 2.253 4.197 4.582m-15.321 6.609c.033-3.48 2.773-5.409 5.761-4.056 2.765 1.252 4.458 4.809 3.69 7.754-.582 2.233-2.464 3.389-4.695 2.884-2.701-.612-4.786-3.497-4.756-6.582M-5.31-.068c-4.117 6.193-3.618 12.373 1.299 17.736-1.816-.604-3.643-1.177-5.444-1.823-1.069-.384-2.246-.863-2.832.46-.596 1.344.443 2.13 1.547 2.634 5.059 2.308 10.369 2.763 15.798 1.913 6.364-.996 11.95-3.508 16.074-8.685.215-.269.433-.537.619-.825.604-.937.685-1.882-.304-2.573-.954-.666-1.685-.142-2.363.624-1.278 1.443-2.613 2.835-3.851 4.17.804-2.241.804-4.611.37-7.57-.486-3.111-1.632-4.811-3.316-6.993 1.106.457 2.228.879 3.313 1.381 1.059.49 2.061.615 2.664-.561.636-1.241-.199-1.929-1.212-2.404-10.001-4.7-19.561-3.764-28.71 2.28-.332.219-.795.462-.884.782-.195.699-.501 1.688-.177 2.119.313.415 1.494.575 2.059.322 1.401-.626 2.662-1.56 3.992-2.351.365-.217.773-.365 1.358-.636"
    transform="matrix(1.33333 0 0 -1.33333 140.821 115.75)" clip-path="url(#prefix__d)" />
  <path
    d="M0 0c-5.248-2.43-10.175-1.892-14.807 1.439-3.669 2.638-5.378 7.084-4.336 11.156 1.047 4.089 4.638 7.068 9.199 7.622.847.102 1.696.184 2.558.277 0 1.417-.122 2.792.031 4.135.192 1.69.355 3.457.984 5.006 1.221 3.014 4.246 3.721 6.512 1.403 1.684-1.724 3.252-3.797 4.139-6.009 1.351-3.369 2.023-7.007 3.093-10.497.235-.768.773-1.689 1.436-2.039 4.32-2.28 9.071-3.107 13.849-3.704 3.876-.484 7.756-.658 11.607.453.543.156 1.676-.448 1.971-1.002.484-.908-.049-1.873-1.099-2.118-1.719-.399-3.473-.826-5.224-.886-7.763-.267-15.276.883-22.423 4.12-2.273 1.029-3.37 2.46-3.572 5.044-.351 4.511-1.9 8.726-4.432 12.498-.543.81-1.612 1.268-2.439 1.888-.331-.933-.91-1.858-.942-2.802a39.965 39.965 0 01.262-6.157c.316-2.604-.227-3.259-2.78-2.877-4.444.664-8.563-1.571-9.547-5.182-.932-3.421 1.414-7.386 5.483-9.05 3-1.227 6.064-1.323 8.939.335 1.466.845 2.508.497 3.727-.433 8.583-6.551 18.273-9.815 29.092-9.634.626.01 1.257.086 1.875.195 1.142.203 2.185.042 2.417-1.242.236-1.297-.735-1.98-1.845-1.984-3.59-.012-7.244-.27-10.758.289C14.549-8.416 6.757-5.345 0 0"
    transform="matrix(1.33333 0 0 -1.33333 179.205 191.91)" clip-path="url(#prefix__e)" />
  <path
    d="M0 0l.089.612c-.719.396-1.414.862-2.176 1.14-.2.073-.612-.439-.927-.682.663-.514 1.292-1.087 2.012-1.502C-.813-.541-.342-.157 0 0m8.262 5.542C5.948 5.524 3.624 3.219 3.575.893c-.032-1.535.898-2.492 2.411-2.479 2.283.019 4.654 2.367 4.704 4.659.034 1.519-.912 2.481-2.428 2.469M5.098 9.407c.019 1.794-1.081 2.95-2.816 2.959-2.232.011-4.422-2.15-4.442-4.383-.016-1.741 1.156-2.964 2.849-2.974 2.268-.012 4.384 2.099 4.409 4.398M-4.324-.071c-4.267 5.345-3.257 11.83 3.978 15.476-1.03.059-1.597.114-2.164.119-1.114.01-2.158.189-2.215 1.57-.062 1.52 1.094 1.753 2.233 1.733 5.874-.102 11.522-1.16 16.449-4.57 1.572-1.087 2.922-2.534 4.227-3.95.786-.852 1.075-2.024-.149-2.82-1.158-.753-1.883.088-2.561.944a14.199 14.199 0 01-1.917 1.981c1.66-4.499.859-8.323-2.984-11.607a18.68 18.68 0 001.01-.081c.88-.106 1.439-.538 1.532-1.241.08-.599-.155-1.347-1.002-1.838-1.088-.632-3.552-1.024-5.349-1.06-6.568-.131-12.7 1.422-18.118 5.307-.417.3-.935.605-1.155.984-.433.749-.634 1.464-.306 2.31.69.446 1.839.499 2.432.102C-8.557 2.065-8.001 1.69-6.144.654c.272-.152 1.336-.569 1.82-.725"
    transform="matrix(1.33333 0 0 -1.33333 54.443 94.359)" clip-path="url(#prefix__f)" />
  <path
    d="M0 0c-8.926.484-17.853.965-26.779 1.461a5.334 5.334 0 00-1.509.293c-1.5.547-1.858 1.772-.778 2.934 1.755 1.889 3.537 3.763 5.441 5.496.527.48 1.612.769 2.295.589A2030.08 2030.08 0 009.332 2.476c.723-.202 1.7-1.266 1.695-1.922C11.017-.73 9.728-.608 8.753-.552c-2.919.166-5.836.356-8.754.536L0 0"
    transform="matrix(1.33333 0 0 -1.33333 163.736 77.874)" clip-path="url(#prefix__g)" />
  <path
    d="M0 0c3.109-2.349 5.975-4.517 8.844-6.681 1.692-1.275 3.388-2.545 5.085-3.814.894-.669 1.636-1.465.808-2.575-.855-1.146-1.878-.759-2.851-.029C6.068-8.733.243-4.376-5.575-.011c-.365.274-.849.532-1.005.91-.24.581-.509 1.395-.272 1.859.232.457 1.116.904 1.65.839C5.367 2.301 11.359 8.492 16.192 16.59c.496.831.678 1.898 1.301 2.589l.016.018c1.005 1.084 2.985.238 2.931-1.239a.536.536 0 00-.002-.04c-.048-.802-.583-1.596-.98-2.355C16.043 9.038 10.291 2.185 0 0"
    transform="matrix(1.33333 0 0 -1.33333 75.778 112.458)" clip-path="url(#prefix__h)" />
  <path
    d="M0 0c1.958.012 3.069-.968 3.587-2.793.39-1.373.851-2.725 1.269-4.09.573-1.874-.004-2.536-1.883-2.039C-.898-7.897-4.75-6.799-8.615-5.749c-4.248 1.153-8.501 2.283-12.751 3.427-.498.134-1.09.169-1.457.47-.483.394-.786 1.008-1.166 1.527.555.301 1.104.851 1.664.862C-18.606.615-3.721-.024 0 0"
    transform="matrix(1.33333 0 0 -1.33333 90.97 58.36)" clip-path="url(#prefix__i)" />
  <path
    d="M0 0c-.03 3.085 2.055 5.97 4.756 6.582 2.231.505 4.113-.651 4.695-2.883.768-2.945-.925-6.503-3.69-7.755C2.773-5.409.033-3.48 0 0"
    transform="matrix(1.33333 0 0 -1.33333 135.65 102.127)" clip-path="url(#prefix__j)" fill="#fff" />
  <path
    d="M0 0c.011-2.329-1.989-4.514-4.197-4.582-1.668-.052-2.986 1.269-3.025 3.032-.051 2.283 2.184 4.683 4.358 4.68C-1.148 3.128-.009 1.883 0 0"
    transform="matrix(1.33333 0 0 -1.33333 156.078 110.939)" clip-path="url(#prefix__k)" fill="#fff" />
  <path
    d="M0 0c.236-.545-.756-.923-1.281-.807-.522.115-1.257.566-1.375.933-.151.683.647.907.872.908C-1.228 1.036-.283.423 0 0"
    transform="matrix(1.33333 0 0 -1.33333 140.821 115.75)" clip-path="url(#prefix__l)" fill="#fff" />
  <path
    d="M0 0c-.025-2.3-2.14-4.41-4.408-4.398-1.693.009-2.866 1.233-2.85 2.974.02 2.233 2.211 4.394 4.442 4.382C-1.081 2.95.019 1.794 0 0"
    transform="matrix(1.33333 0 0 -1.33333 61.24 81.816)" clip-path="url(#prefix__m)" fill="#fff" />
  <path
    d="M0 0c1.516.012 2.462-.95 2.428-2.469-.051-2.293-2.421-4.64-4.704-4.66-1.513-.012-2.443.945-2.411 2.48C-4.639-2.323-2.314-.018 0 0"
    transform="matrix(1.33333 0 0 -1.33333 65.46 86.97)" clip-path="url(#prefix__n)" fill="#fff" />
  <path
    d="M0 0c-.255-.304-.813-.541-1.002-.432-.72.415-1.94 1.086-2.012 1.502-.059.447.716.708.927.682C-1.329 1.659-.211.925.089.612.239.409.089.201 0 0"
    transform="matrix(1.33333 0 0 -1.33333 54.443 94.359)" clip-path="url(#prefix__o)" fill="#fff" />
  <path
    d="M0 0c-.067.849-7.315 85.172-68.426 105.872-28.255 9.571-51.615 6.486-69.441-9.169-13.314-11.691-18.384-26.301-18.434-26.448l-.447-1.316-1.375-.201c-.083-.013-8.937-1.425-13.942-8.572-3.412-4.874-4.333-11.356-2.737-19.267 2.083-10.329 11.563-17.818 19.149-22.283 20.441-12.032 51.195-16.767 70.015-10.782l1.376-4.33c-19.9-6.33-52.274-1.412-73.696 11.196-12.022 7.075-19.387 15.825-21.299 25.301-1.856 9.202-.677 16.879 3.504 22.818 4.927 6.999 12.554 9.424 15.632 10.147 3.558 8.735 27.41 59.473 93.153 37.21C-3.001 88.508 4.462 1.229 4.528.35z"
    transform="matrix(1.33333 0 0 -1.33333 240.146 184.934)" clip-path="url(#prefix__p)" />
  <path d="M0 0c-1.866 2.336.908 4.548 3.166 2.829C6.193.526 3.389-4.242 0 0"
    transform="matrix(1.33333 0 0 -1.33333 98.423 118.202)" clip-path="url(#prefix__q)" />
  <path
    d="M0 0l-3.816 2.465C5.073 16.229 8.442 50.334 1.998 61.324c-3.223 5.497-5.846 5.017-9.475 3.658a3.56 3.56 0 00-3.562.633 3.582 3.582 0 00-1.175 3.445c1.635 7.858 3.876 18.618 1.44 23.871-1.454 3.134-3.154 4.948-5.056 5.391-2.057.481-4.672-.546-7.775-3.048a3.54 3.54 0 00-3.722-.468 3.535 3.535 0 00-2.074 3.115c-.281 8.347-5.804 18.544-14.242 20.46-3.864.874-6.922-.634-9.364-4.619a3.187 3.187 0 00-5.794.839c-1.92 7.102-9.261 20.042-18.178 19.176-6.516-.611-7.619-4.773-8.193-8.985-.205-1.512-.418-3.076-2.061-3.57-.465-.141-1.676-.334-2.779.923-1.948 2.219-11.064 10.437-20.334 10.437l-.189-.002c-3.057-.037-4.808-2.555-5.429-4.9-1.094-4.143.506-9.905 6.549-13.438l-2.293-3.922c-8.104 4.737-10.182 12.715-8.648 18.521 1.316 4.976 5.149 8.226 9.766 8.283l.237.001c8.513 0 16.66-5.503 21.073-9.364.841 3.913 3.253 9.731 11.876 10.541 11.158 1.028 19.111-11.617 22.148-19.896 3.323 3.959 7.724 5.516 12.619 4.405 10.054-2.283 16.616-13.084 17.648-22.892 3.685 2.597 7.11 3.545 10.19 2.828 3.333-.777 6.075-3.437 8.147-7.905 2.693-5.81 1.331-14.755-.772-25.052 4.333 1.271 9.128 1.019 13.341-6.167C13.113 51.351 9.74 15.08 0 0"
    transform="matrix(1.33333 0 0 -1.33333 246.197 184.481)" clip-path="url(#prefix__r)" />
</svg>